<?xml version="1.0" standalone="no"?>
<!DOCTYPE svg PUBLIC "-//W3C//DTD SVG 20010904//EN"
 "http://www.w3.org/TR/2001/REC-SVG-20010904/DTD/svg10.dtd">
<svg version="1.0" xmlns="http://www.w3.org/2000/svg"
 width="1120.000000pt" height="1120.000000pt" viewBox="0 0 1120.000000 1120.000000"
 preserveAspectRatio="xMidYMid meet">

<g transform="translate(0.000000,1120.000000) scale(0.100000,-0.100000)"
fill="#000000" stroke="none">
<path d="M5360 9055 c-242 -23 -524 -79 -686 -136 -49 -17 -93 -35 -99 -39 -5
-4 -41 -17 -80 -29 -73 -22 -387 -169 -393 -183 -2 -5 -30 -21 -61 -37 -91
-45 -324 -207 -431 -300 -340 -294 -633 -654 -796 -976 -48 -93 -93 -177 -100
-186 -24 -27 -149 -397 -175 -514 -5 -27 -13 -57 -16 -65 -4 -8 -5 -19 -4 -24
1 -4 -3 -13 -8 -20 -21 -25 -55 -315 -66 -561 -7 -142 7 -450 25 -560 5 -33
14 -87 19 -120 20 -124 84 -354 142 -512 51 -141 190 -425 272 -558 177 -287
391 -529 746 -840 95 -84 263 -196 438 -294 712 -395 1568 -509 2348 -312 395
99 776 270 1077 482 363 257 697 603 849 879 22 41 58 98 79 125 49 64 206
378 255 510 41 111 117 387 140 510 48 250 49 265 49 550 1 273 -14 496 -34
520 -6 7 -7 15 -3 18 3 4 1 18 -7 31 -7 14 -10 34 -7 45 3 12 1 21 -4 21 -5 0
-9 10 -9 22 0 69 -161 598 -193 637 -8 9 -20 32 -27 51 -24 64 -153 310 -162
310 -5 0 -7 4 -4 8 3 5 -4 16 -15 25 -10 9 -19 24 -19 32 0 8 -4 15 -9 15 -5
0 -13 10 -16 21 -26 81 -273 387 -451 559 -210 203 -431 372 -597 456 -32 16
-68 38 -80 49 -12 11 -24 20 -27 19 -3 0 -65 28 -138 63 -73 35 -136 63 -140
63 -7 0 -124 43 -177 65 -11 5 -22 9 -25 10 -3 1 -16 6 -30 12 -56 23 -122 42
-265 77 -368 87 -731 114 -1085 81z m645 -55 c405 -51 777 -162 1130 -337 85
-42 296 -171 387 -236 200 -143 446 -372 603 -562 334 -405 582 -961 659
-1483 58 -388 44 -807 -38 -1172 -120 -528 -394 -1042 -771 -1442 -380 -404
-866 -707 -1385 -862 -155 -46 -425 -101 -590 -120 -155 -18 -492 -21 -638 -6
-502 53 -920 192 -1343 446 -451 270 -847 683 -1126 1171 -170 295 -290 642
-355 1018 -20 117 -22 164 -22 470 -1 303 2 355 22 480 53 336 145 624 286
900 261 510 595 890 1056 1204 472 321 924 479 1555 545 68 7 486 -3 570 -14z"/>
<path d="M5475 8914 c-438 -34 -795 -130 -1170 -314 -337 -165 -574 -338 -850
-622 -244 -250 -397 -462 -545 -758 -155 -309 -268 -701 -300 -1038 -13 -136
-13 -423 0 -572 46 -525 240 -1038 564 -1485 225 -311 576 -635 903 -833 100
-60 365 -192 433 -215 25 -8 90 -32 145 -52 286 -104 571 -153 934 -162 297
-7 439 6 766 72 188 38 438 129 680 248 352 174 594 355 899 677 326 344 585
826 710 1320 110 435 107 1019 -6 1440 -87 323 -190 572 -338 820 -481 805
-1295 1327 -2269 1455 -112 15 -459 27 -556 19z m475 -39 c299 -29 530 -82
810 -187 168 -63 471 -217 610 -310 712 -480 1168 -1199 1302 -2053 30 -193
33 -677 5 -855 -85 -537 -298 -1027 -625 -1435 -272 -339 -635 -636 -998 -818
-330 -165 -648 -262 -1024 -313 -173 -24 -568 -24 -740 -1 -498 68 -905 217
-1296 475 -299 197 -611 495 -810 772 -290 403 -470 858 -540 1360 -27 195
-25 599 4 790 54 351 141 622 300 935 231 454 591 854 1031 1149 136 90 296
180 431 241 123 56 398 149 541 184 303 73 672 98 999 66z"/>
<path d="M5367 8720 c-679 -71 -1299 -366 -1772 -844 -433 -438 -704 -979
-800 -1596 -22 -141 -31 -493 -16 -642 87 -889 578 -1678 1347 -2163 244 -155
628 -310 909 -369 774 -161 1564 -18 2213 400 679 439 1152 1166 1273 1959 40
263 36 628 -12 915 -68 416 -268 869 -542 1232 -196 260 -493 529 -762 690
-89 53 -347 180 -450 221 -203 81 -433 143 -662 177 -158 24 -574 35 -726 20z
m714 -79 c349 -56 630 -146 916 -296 317 -166 528 -328 783 -601 322 -344 580
-865 665 -1339 62 -352 58 -739 -11 -1083 -77 -384 -286 -831 -540 -1152 -71
-89 -321 -344 -413 -420 -409 -341 -929 -561 -1476 -625 -232 -28 -589 -18
-860 24 -155 24 -459 112 -587 170 -24 11 -78 35 -121 55 -172 78 -419 235
-577 366 -124 104 -280 259 -390 390 -272 323 -475 727 -569 1130 -49 213 -65
363 -65 620 0 255 8 347 49 550 73 355 207 676 417 990 239 359 585 680 953
885 102 56 138 74 245 122 276 124 561 197 920 237 19 2 148 3 285 1 187 -3
282 -9 376 -24z"/>
<path d="M4663 7140 c-130 -18 -246 -56 -378 -122 -255 -129 -471 -373 -568
-643 -49 -136 -62 -226 -61 -415 0 -187 16 -282 71 -428 115 -306 366 -561
673 -684 314 -126 701 -99 992 68 75 43 206 147 215 170 4 10 -30 51 -99 122
-57 59 -134 138 -170 176 l-66 70 -35 -31 c-110 -96 -262 -153 -409 -153 -197
0 -359 65 -496 199 -115 115 -181 251 -202 418 -39 315 150 613 460 723 79 29
281 39 370 20 74 -16 204 -78 260 -124 l45 -37 148 153 c82 84 157 165 168
180 l19 26 -54 50 c-134 122 -303 206 -499 248 -85 18 -301 26 -384 14z m338
-85 c175 -30 343 -107 468 -215 l23 -20 -33 -37 c-18 -21 -69 -77 -114 -126
l-82 -87 -25 19 c-41 33 -162 90 -230 108 -47 14 -99 18 -208 17 -129 0 -154
-3 -225 -27 -108 -36 -195 -88 -282 -171 -175 -165 -253 -358 -240 -596 15
-284 175 -526 431 -653 100 -49 174 -67 301 -74 158 -7 280 24 420 109 l69 41
119 -124 118 -124 -39 -35 c-54 -49 -192 -124 -284 -154 -278 -93 -547 -82
-810 33 -123 55 -219 121 -324 225 -487 484 -434 1282 111 1688 238 178 549
254 836 203z"/>
<path d="M5759 7098 c-5 -10 -7 -665 -2 -800 l6 -167 26 4 c14 2 46 7 70 10
l44 6 -47 -47 c-55 -56 -82 -110 -97 -190 -7 -39 -10 -227 -7 -569 l3 -510
948 -3 949 -2 -84 102 c-46 57 -112 139 -145 183 -78 102 -115 137 -183 172
l-55 28 -468 3 -467 3 2 197 3 197 340 0 c331 0 341 1 397 23 85 34 124 84
227 291 l90 181 -530 0 -529 0 0 195 0 194 483 3 482 3 55 27 c58 29 118 80
164 141 23 29 166 308 166 323 0 4 -1839 6 -1841 2z m1697 -104 c-15 -57 -82
-177 -123 -219 -24 -24 -67 -55 -95 -69 l-52 -26 -492 0 c-271 0 -499 -3 -508
-6 -14 -5 -16 -35 -16 -225 l0 -219 -170 0 -170 0 0 388 c0 214 2 391 5 393 2
3 370 6 816 8 l812 2 -7 -27z m-302 -919 c-75 -170 -129 -242 -202 -266 -43
-14 -85 -15 -676 -11 l-449 2 5 68 c6 83 32 136 93 190 82 72 64 70 692 71
l562 1 -25 -55z m-984 -595 l0 -240 483 0 c562 0 547 2 637 -89 45 -45 164
-201 178 -233 2 -5 -366 -8 -817 -8 l-821 0 0 405 0 405 170 0 170 0 0 -240z"/>
</g>
</svg>
